<svg xmlns="http://www.w3.org/2000/svg" xmlns:xlink="http://www.w3.org/1999/xlink" width="1040" height="213.67999999999998"><rect width="1040" height="213.67999999999998" rx="0" ry="0" class="a"></rect><svg height="173.67999999999998" viewBox="0 0 100 17.368" width="1000" x="20" xmlns="http://www.w3.org/2000/svg" xmlns:xlink="http://www.w3.org/1999/xlink" y="20"><style>.a{fill:rgb(40,45,53)}.b{font-family:'Fira Code',Monaco,Consolas,Menlo,'Bitstream Vera Sans Mono','Powerline Symbols',monospace}.c{fill:transparent}.d{fill:rgb(102,194,205);white-space:pre}.e{fill:rgb(185,192,203);white-space:pre}.f{fill:rgb(113,190,242);white-space:pre}.g{fill:rgb(185,192,203);font-weight:bold;white-space:pre}.h{fill:rgb(168,204,140);white-space:pre}</style><g font-family="&#x27;Fira Code&#x27;,Monaco,Consolas,Menlo,&#x27;Bitstream Vera Sans Mono&#x27;,&#x27;Powerline Symbols&#x27;,monospace" font-size="1.67" class="b"><defs><symbol id="a"><rect height="9" width="100" x="0" y="0" class="c"></rect></symbol></defs><rect height="17.368" width="100" class="a"></rect><svg x="0" y="0" width="100"><svg x="0"><use xlink:href="#a"></use><text x="0" y="1.67" class="d">ℹ</text><text x="2.004" y="1.67" class="e">Converting</text><text x="13.026" y="1.67" class="e">GDP</text><text x="17.034" y="1.67" class="e">with</text><text x="22.043999999999997" y="1.67" class="e">conversion</text><text x="33.065999999999995" y="1.67" class="e">factors</text><text x="41.082" y="1.67" class="e">from</text><text x="46.09199999999999" y="1.67" class="f">wb_wdi</text><text x="52.104" y="1.67" class="e">:</text><text x="0" y="3.8409999999999997" class="g">constant</text><text x="9.017999999999999" y="3.8409999999999997" class="g">2005</text><text x="14.027999999999999" y="3.8409999999999997" class="g">LCU</text><text x="18.035999999999998" y="3.8409999999999997" class="h">→</text><text x="20.04" y="3.8409999999999997" class="g">constant</text><text x="29.058" y="3.8409999999999997" class="g">2017</text><text x="34.068" y="3.8409999999999997" class="g">LCU</text><text x="0" y="6.012" class="f">2017</text><text x="5.01" y="6.012" class="f">value</text><text x="11.021999999999998" y="6.012" class="f">of</text><text x="14.027999999999999" y="6.012" class="f">base</text><text x="19.037999999999997" y="6.012" class="f">2005</text><text x="24.048" y="6.012" class="f">GDP</text><text x="28.055999999999997" y="6.012" class="f">deflator</text><text x="37.074" y="6.012" class="e">in</text><text x="40.08" y="6.012" class="e">(constant</text><text x="50.1" y="6.012" class="e">2017</text><text x="55.10999999999999" y="6.012" class="e">LCU</text><text x="59.117999999999995" y="6.012" class="e">per</text><text x="63.12599999999999" y="6.012" class="e">constant</text><text x="72.14399999999999" y="6.012" class="e">2005</text><text x="0" y="8.183" class="e">LCU)</text><text x="5.01" y="8.183" class="e">used:</text><text x="0" y="10.354" class="e">USA:</text><text x="5.01" y="10.354" class="e">1.23304244543521</text><text x="0" y="12.525" class="g">constant</text><text x="9.017999999999999" y="12.525" class="g">2017</text><text x="14.027999999999999" y="12.525" class="g">LCU</text><text x="18.035999999999998" y="12.525" class="h">→</text><text x="20.04" y="12.525" class="g">constant</text><text x="29.058" y="12.525" class="g">2017</text><text x="34.068" y="12.525" class="g">Int$PPP</text><text x="0" y="14.696" class="f">2017</text><text x="5.01" y="14.696" class="f">PPP</text><text x="9.017999999999999" y="14.696" class="f">conversion</text><text x="20.04" y="14.696" class="f">factor</text><text x="27.054" y="14.696" class="e">in</text><text x="30.059999999999995" y="14.696" class="e">(LCU</text><text x="35.06999999999999" y="14.696" class="e">per</text><text x="39.077999999999996" y="14.696" class="e">international</text><text x="53.105999999999995" y="14.696" class="e">$)</text><text x="56.111999999999995" y="14.696" class="e">used:</text><text x="0" y="16.866999999999997" class="e">USA:</text><text x="5.01" y="16.866999999999997" class="e">1</text></svg></svg></g></svg></svg>