<svg xmlns="http://www.w3.org/2000/svg" xmlns:xlink="http://www.w3.org/1999/xlink" width="1040" height="170.26"><rect width="1040" height="170.26" rx="0" ry="0" class="a"></rect><svg height="130.26" viewBox="0 0 100 13.026" width="1000" x="20" xmlns="http://www.w3.org/2000/svg" xmlns:xlink="http://www.w3.org/1999/xlink" y="20"><style>.a{fill:rgb(40,45,53)}.b{font-family:'Fira Code',Monaco,Consolas,Menlo,'Bitstream Vera Sans Mono','Powerline Symbols',monospace}.c{fill:transparent}.d{fill:rgb(185,192,203);white-space:pre}</style><g font-family="&#x27;Fira Code&#x27;,Monaco,Consolas,Menlo,&#x27;Bitstream Vera Sans Mono&#x27;,&#x27;Powerline Symbols&#x27;,monospace" font-size="1.67" class="b"><defs><symbol id="a"><rect height="7" width="100" x="0" y="0" class="c"></rect></symbol></defs><rect height="13.026" width="100" class="a"></rect><svg x="0" y="0" width="100"><svg x="0"><use xlink:href="#a"></use><text x="0" y="1.67" class="d">──</text><text x="3.006" y="1.67" class="d">wb_wdi</text><text x="10.02" y="1.67" class="d">──────────────────────────────────────────────────────────────────────</text><text x="0" y="3.8409999999999997" class="d">→</text><text x="2.004" y="3.8409999999999997" class="d">Origin:</text><text x="10.02" y="3.8409999999999997" class="d">The</text><text x="14.027999999999999" y="3.8409999999999997" class="d">World</text><text x="20.04" y="3.8409999999999997" class="d">Bank&#x27;s</text><text x="27.054" y="3.8409999999999997" class="d">World</text><text x="33.065999999999995" y="3.8409999999999997" class="d">Development</text><text x="45.089999999999996" y="3.8409999999999997" class="d">Indicator</text><text x="55.10999999999999" y="3.8409999999999997" class="d">Database</text><text x="0" y="6.012" class="d">→</text><text x="2.004" y="6.012" class="d">Date:</text><text x="8.016" y="6.012" class="d">Downloaded</text><text x="19.037999999999997" y="6.012" class="d">on</text><text x="22.043999999999997" y="6.012" class="d">the</text><text x="26.052" y="6.012" class="d">6</text><text x="28.055999999999997" y="6.012" class="d">of</text><text x="31.061999999999998" y="6.012" class="d">May</text><text x="35.06999999999999" y="6.012" class="d">2021</text><text x="0" y="8.183" class="d">→</text><text x="2.004" y="8.183" class="d">Html:</text><text x="8.016" y="8.183" class="d">https://databank.worldbank.org/source/world-development-indicators</text><text x="0" y="10.354" class="d">→</text><text x="2.004" y="10.354" class="d">Note:</text><text x="8.016" y="10.354" class="d">Uses</text><text x="13.026" y="10.354" class="d">the</text><text x="17.034" y="10.354" class="d">standard</text><text x="26.052" y="10.354" class="d">deflator.</text><text x="0" y="12.525" class="d">────────────────────────────────────────────────────────────────────────────────</text></svg></svg></g></svg></svg>